<mxfile host="app.diagrams.net" modified="2024-06-27T07:25:55.886Z" agent="Mozilla/5.0 (Windows NT 10.0; Win64; x64) AppleWebKit/537.36 (KHTML, like Gecko) Chrome/126.0.0.0 Safari/537.36" version="24.6.3" etag="993Q4cd1c67Z3bT7Yshe" type="github">
  <diagram name="第 1 页" id="kJIzHCIU4ED4c31Et8Dl">
    <mxGraphModel>
      <root>
        <mxCell id="0" />
        <mxCell id="1" parent="0" />
      </root>
    </mxGraphModel>
  </diagram>
</mxfile>
